# xmcd
#
# Track frame offsets: 
#        150
#        14843
#        31578
#        43730
#        54335
#        65910
#        83041
#        95288
#        105292
#        120300
#        134967
#        150524
#
# Disc length: 2219 seconds
#
# Revision: 0
# Processed by: cddbd v1.5.2PL0 Copyright (c) Steve Scherf et al.
# Submitted via: ExactAudioCopyFreeDBPlugin 1.0
#
DISCID=9608a90c
DTITLE=Charlie Faye - The Whole Shebang
DYEAR=2019
DGENRE=Soul
TTITLE0=1-2-3-4
TTITLE1=I Don’t Need No Baby
TTITLE2=The Cream Rises to the Top
TTITLE3=The Whole Shebang
TTITLE4=Stone Cold Fox
TTITLE5=Night People
TTITLE6=Baby We’ll Be OK
TTITLE7=Tonight’s the Night
TTITLE8=That’s What New Love is For
TTITLE9=Say Those Words
TTITLE10=Riding High
TTITLE11=You Gotta Give it Up (Party Song)
EXTD=
EXTT0=
EXTT1=
EXTT2=
EXTT3=
EXTT4=
EXTT5=
EXTT6=
EXTT7=
EXTT8=
EXTT9=
EXTT10=
EXTT11=
PLAYORDER=
